<?xml version="1.0" encoding="UTF-8" standalone="no"?>
<svg
   xmlns:dc="http://purl.org/dc/elements/1.1/"
   xmlns:cc="http://creativecommons.org/ns#"
   xmlns:rdf="http://www.w3.org/1999/02/22-rdf-syntax-ns#"
   xmlns:svg="http://www.w3.org/2000/svg"
   xmlns="http://www.w3.org/2000/svg"
   width="154.97491mm"
   height="99.363297mm"
   viewBox="0 0 154.97491 99.363297"
   version="1.1"
   id="svg3174">
  <defs
     id="defs3168">
    <clipPath
       clipPathUnits="userSpaceOnUse"
       id="clipPath1298">
      <path
         d="M 0,0 H 960 V 540 H 0 Z"
         id="path1296" />
    </clipPath>
    <clipPath
       clipPathUnits="userSpaceOnUse"
       id="clipPath1398">
      <path
         d="M 0,0 H 960 V 540 H 0 Z"
         id="path1396" />
    </clipPath>
    <clipPath
       clipPathUnits="userSpaceOnUse"
       id="clipPath1410">
      <path
         d="M 0,0 H 960 V 540 H 0 Z"
         id="path1408" />
    </clipPath>
    <clipPath
       clipPathUnits="userSpaceOnUse"
       id="clipPath1422">
      <path
         d="M 0,0 H 960 V 540 H 0 Z"
         id="path1420" />
    </clipPath>
    <clipPath
       clipPathUnits="userSpaceOnUse"
       id="clipPath1434">
      <path
         d="M 0,0 H 960 V 540 H 0 Z"
         id="path1432" />
    </clipPath>
    <clipPath
       clipPathUnits="userSpaceOnUse"
       id="clipPath1506">
      <path
         d="M 0,0 H 960 V 540 H 0 Z"
         id="path1504" />
    </clipPath>
    <clipPath
       clipPathUnits="userSpaceOnUse"
       id="clipPath1522">
      <path
         d="M 0,0 H 960 V 540 H 0 Z"
         id="path1520" />
    </clipPath>
    <clipPath
       clipPathUnits="userSpaceOnUse"
       id="clipPath1538">
      <path
         d="M 0,0 H 960 V 540 H 0 Z"
         id="path1536" />
    </clipPath>
    <clipPath
       clipPathUnits="userSpaceOnUse"
       id="clipPath1554">
      <path
         d="M 0,0 H 960 V 540 H 0 Z"
         id="path1552" />
    </clipPath>
    <clipPath
       clipPathUnits="userSpaceOnUse"
       id="clipPath1616">
      <path
         d="M 0,0 H 960 V 540 H 0 Z"
         id="path1614" />
    </clipPath>
    <clipPath
       clipPathUnits="userSpaceOnUse"
       id="clipPath1628">
      <path
         d="M 0,0 H 960 V 540 H 0 Z"
         id="path1626" />
    </clipPath>
    <clipPath
       clipPathUnits="userSpaceOnUse"
       id="clipPath1640">
      <path
         d="M 0,0 H 960 V 540 H 0 Z"
         id="path1638" />
    </clipPath>
    <clipPath
       clipPathUnits="userSpaceOnUse"
       id="clipPath1652">
      <path
         d="M 0,0 H 960 V 540 H 0 Z"
         id="path1650" />
    </clipPath>
    <clipPath
       clipPathUnits="userSpaceOnUse"
       id="clipPath1776">
      <path
         d="M 0,0 H 960 V 540 H 0 Z"
         id="path1774" />
    </clipPath>
    <clipPath
       clipPathUnits="userSpaceOnUse"
       id="clipPath1788">
      <path
         d="M 0,0 H 960 V 540 H 0 Z"
         id="path1786" />
    </clipPath>
    <clipPath
       clipPathUnits="userSpaceOnUse"
       id="clipPath1800">
      <path
         d="M 0,0 H 960 V 540 H 0 Z"
         id="path1798" />
    </clipPath>
    <clipPath
       clipPathUnits="userSpaceOnUse"
       id="clipPath1812">
      <path
         d="M 0,0 H 960 V 540 H 0 Z"
         id="path1810" />
    </clipPath>
    <clipPath
       clipPathUnits="userSpaceOnUse"
       id="clipPath1824">
      <path
         d="M 0,0 H 960 V 540 H 0 Z"
         id="path1822" />
    </clipPath>
    <clipPath
       clipPathUnits="userSpaceOnUse"
       id="clipPath1836">
      <path
         d="M 0,0 H 960 V 540 H 0 Z"
         id="path1834" />
    </clipPath>
    <clipPath
       clipPathUnits="userSpaceOnUse"
       id="clipPath2022">
      <path
         d="M 0,0 H 960 V 540 H 0 Z"
         id="path2020" />
    </clipPath>
    <clipPath
       clipPathUnits="userSpaceOnUse"
       id="clipPath2034">
      <path
         d="M 0,0 H 960 V 540 H 0 Z"
         id="path2032" />
    </clipPath>
    <clipPath
       clipPathUnits="userSpaceOnUse"
       id="clipPath2046">
      <path
         d="M 0,0 H 960 V 540 H 0 Z"
         id="path2044" />
    </clipPath>
    <clipPath
       clipPathUnits="userSpaceOnUse"
       id="clipPath2058">
      <path
         d="M 0,0 H 960 V 540 H 0 Z"
         id="path2056" />
    </clipPath>
  </defs>
  <metadata
     id="metadata3171">
    <rdf:RDF>
      <cc:Work
         rdf:about="">
        <dc:format>image/svg+xml</dc:format>
        <dc:type
           rdf:resource="http://purl.org/dc/dcmitype/StillImage" />
        <dc:title></dc:title>
      </cc:Work>
    </rdf:RDF>
  </metadata>
  <g
     id="layer1"
     transform="translate(-26.896903,-27.369107)">
    <g
       id="g1272"
       transform="matrix(0.35277777,0,0,-0.35277777,52.085233,56.000471)">
      <path
         d="M 0,0 H 121.299"
         style="fill:none;stroke:#c0504d;stroke-width:1;stroke-linecap:butt;stroke-linejoin:round;stroke-miterlimit:10;stroke-dasharray:4, 3;stroke-dashoffset:0;stroke-opacity:1"
         id="path1274" />
    </g>
    <g
       id="g1276"
       transform="matrix(0.35277777,0,0,-0.35277777,52.085233,125.99158)">
      <path
         d="M 0,0 H 121.299"
         style="fill:none;stroke:#c0504d;stroke-width:1;stroke-linecap:butt;stroke-linejoin:round;stroke-miterlimit:10;stroke-dasharray:4, 3;stroke-dashoffset:0;stroke-opacity:1"
         id="path1278" />
    </g>
    <g
       id="g1280"
       transform="matrix(0.35277777,0,0,-0.35277777,52.085233,46.475471)">
      <path
         d="M 0,0 H 121.299"
         style="fill:none;stroke:#c0504d;stroke-width:1;stroke-linecap:butt;stroke-linejoin:round;stroke-miterlimit:10;stroke-dasharray:4, 3;stroke-dashoffset:0;stroke-opacity:1"
         id="path1282" />
    </g>
    <g
       id="g1284"
       transform="matrix(0.35277777,0,0,-0.35277777,52.085233,52.049361)">
      <path
         d="M 0,0 H 121.299"
         style="fill:none;stroke:#c0504d;stroke-width:1;stroke-linecap:butt;stroke-linejoin:round;stroke-miterlimit:10;stroke-dasharray:4, 3;stroke-dashoffset:0;stroke-opacity:1"
         id="path1286" />
    </g>
    <g
       id="g1288"
       transform="matrix(0.35277777,0,0,-0.35277777,52.085233,37.514914)">
      <path
         d="M 0,0 H 121.299"
         style="fill:none;stroke:#c0504d;stroke-width:1;stroke-linecap:butt;stroke-linejoin:round;stroke-miterlimit:10;stroke-dasharray:4, 3;stroke-dashoffset:0;stroke-opacity:1"
         id="path1290" />
    </g>
    <g
       id="g1292"
       transform="matrix(0.35277777,0,0,-0.35277777,-148.39837,157.70629)">
      <g
         id="g1294"
         clip-path="url(#clipPath1298)">
        <g
           id="g1300"
           transform="translate(630.4,156.4)">
          <path
             d="m 0,0 c 3.148,0 5.7,-0.425 5.7,-0.95 v -29.9 c 0,-0.525 2.552,-0.95 5.7,-0.95 -3.148,0 -5.7,-0.425 -5.7,-0.95 v -29.9 C 5.7,-63.175 3.148,-63.6 0,-63.6"
             style="fill:none;stroke:#c0504d;stroke-width:1.6;stroke-linecap:butt;stroke-linejoin:round;stroke-miterlimit:10;stroke-dasharray:none;stroke-opacity:1"
             id="path1302" />
        </g>
      </g>
    </g>
    <g
       id="g1304"
       transform="matrix(0.35277777,0,0,-0.35277777,48.839679,60.868805)">
      <path
         d="M 0,0 H 90.423"
         style="fill:none;stroke:#c0504d;stroke-width:1;stroke-linecap:butt;stroke-linejoin:round;stroke-miterlimit:10;stroke-dasharray:4, 3;stroke-dashoffset:0;stroke-opacity:1"
         id="path1306" />
    </g>
    <g
       id="g1308"
       transform="matrix(0.35277777,0,0,-0.35277777,41.360789,78.578248)">
      <path
         d="M 0,0 H 111.576"
         style="fill:none;stroke:#c0504d;stroke-width:1;stroke-linecap:butt;stroke-linejoin:round;stroke-miterlimit:10;stroke-dasharray:4, 3;stroke-dashoffset:0;stroke-opacity:1"
         id="path1310" />
    </g>
    <g
       id="g1312"
       transform="matrix(0.35277777,0,0,-0.35277777,35.786903,102.35547)">
      <path
         d="M 0,0 H 132"
         style="fill:none;stroke:#c0504d;stroke-width:1;stroke-linecap:butt;stroke-linejoin:round;stroke-miterlimit:10;stroke-dasharray:4, 3;stroke-dashoffset:0;stroke-opacity:1"
         id="path1314" />
    </g>
    <g
       id="g1376"
       transform="matrix(0.35277777,0,0,-0.35277777,65.455512,37.550194)">
      <path
         d="M 0,0 V -24.948"
         style="fill:none;stroke:#00b0f0;stroke-width:0.8;stroke-linecap:butt;stroke-linejoin:round;stroke-miterlimit:10;stroke-dasharray:none;stroke-opacity:1"
         id="path1378" />
    </g>
    <g
       id="g1380"
       transform="matrix(0.35277777,0,0,-0.35277777,61.504399,46.863527)">
      <path
         d="M 0,0 0.743,-14.416"
         style="fill:none;stroke:#00b0f0;stroke-width:0.8;stroke-linecap:butt;stroke-linejoin:round;stroke-miterlimit:10;stroke-dasharray:none;stroke-opacity:1"
         id="path1382" />
    </g>
    <g
       id="g1384"
       transform="matrix(0.35277777,0,0,-0.35277777,39.934367,55.682971)">
      <path
         d="M 0,0 -2.857,-198.337"
         style="fill:none;stroke:#00b0f0;stroke-width:0.8;stroke-linecap:butt;stroke-linejoin:round;stroke-miterlimit:10;stroke-dasharray:none;stroke-opacity:1"
         id="path1386" />
    </g>
    <g
       id="g1388"
       transform="matrix(0.35277777,0,0,-0.35277777,53.954956,52.014081)">
      <path
         d="M 0,0 0.27,-11.32"
         style="fill:none;stroke:#00b0f0;stroke-width:0.8;stroke-linecap:butt;stroke-linejoin:round;stroke-miterlimit:10;stroke-dasharray:none;stroke-opacity:1"
         id="path1390" />
    </g>
    <g
       id="g1392"
       transform="matrix(0.35277777,0,0,-0.35277777,-148.39837,157.70629)">
      <g
         id="g1394"
         clip-path="url(#clipPath1398)">
        <g
           id="g1400"
           transform="translate(512.9,90.7)">
          <path
             d="M 0,0 C 9.625,76.181 13.475,120.619 46.2,196.8"
             style="fill:none;stroke:#00b0f0;stroke-width:4.6;stroke-linecap:butt;stroke-linejoin:round;stroke-miterlimit:10;stroke-dasharray:none;stroke-opacity:1"
             id="path1402" />
        </g>
      </g>
    </g>
    <g
       id="g1404"
       transform="matrix(0.35277777,0,0,-0.35277777,-148.39837,157.70629)">
      <g
         id="g1406"
         clip-path="url(#clipPath1410)">
        <g
           id="g1412"
           transform="translate(564.5,287.5)">
          <path
             d="M 0,0 C 4.125,4.645 5.775,7.355 19.8,12"
             style="fill:none;stroke:#00b0f0;stroke-width:4.6;stroke-linecap:butt;stroke-linejoin:round;stroke-miterlimit:10;stroke-dasharray:none;stroke-opacity:1"
             id="path1414" />
        </g>
      </g>
    </g>
    <g
       id="g1416"
       transform="matrix(0.35277777,0,0,-0.35277777,-148.39837,157.70629)">
      <g
         id="g1418"
         clip-path="url(#clipPath1422)">
        <g
           id="g1424"
           transform="translate(590.7,299.5)">
          <path
             d="M 0,0 C 5.133,5.965 7.562,9.821 8.6,16"
             style="fill:none;stroke:#00b0f0;stroke-width:4.6;stroke-linecap:butt;stroke-linejoin:round;stroke-miterlimit:10;stroke-dasharray:none;stroke-opacity:1"
             id="path1426" />
        </g>
      </g>
    </g>
    <g
       id="g1428"
       transform="matrix(0.35277777,0,0,-0.35277777,-148.39837,157.70629)">
      <g
         id="g1430"
         clip-path="url(#clipPath1434)">
        <g
           id="g1436"
           transform="translate(601.1,316.3)">
          <path
             d="M 0,0 C 4.417,9.339 7.597,15.999 10.6,24.4"
             style="fill:none;stroke:#00b0f0;stroke-width:4.6;stroke-linecap:butt;stroke-linejoin:round;stroke-miterlimit:10;stroke-dasharray:none;stroke-opacity:1"
             id="path1438" />
        </g>
      </g>
    </g>
    <g
       id="g1440"
       transform="matrix(0.35277777,0,0,-0.35277777,26.896903,56.000471)">
      <path
         d="M 0,0 H 121.299"
         style="fill:none;stroke:#000000;stroke-width:3;stroke-linecap:butt;stroke-linejoin:round;stroke-miterlimit:10;stroke-dasharray:none;stroke-opacity:1"
         id="path1442" />
    </g>
    <g
       id="g1444"
       transform="matrix(0.35277777,0,0,-0.35277777,26.896903,125.99158)">
      <path
         d="M 0,0 H 121.299"
         style="fill:none;stroke:#000000;stroke-width:3;stroke-linecap:butt;stroke-linejoin:round;stroke-miterlimit:10;stroke-dasharray:none;stroke-opacity:1"
         id="path1446" />
    </g>
    <g
       id="g1448"
       transform="matrix(0.35277777,0,0,-0.35277777,26.896903,46.475471)">
      <path
         d="M 0,0 H 121.299"
         style="fill:none;stroke:#000000;stroke-width:3;stroke-linecap:butt;stroke-linejoin:round;stroke-miterlimit:10;stroke-dasharray:none;stroke-opacity:1"
         id="path1450" />
    </g>
    <g
       id="g1452"
       transform="matrix(0.35277777,0,0,-0.35277777,26.896903,52.049361)">
      <path
         d="M 0,0 H 121.299"
         style="fill:none;stroke:#000000;stroke-width:3;stroke-linecap:butt;stroke-linejoin:round;stroke-miterlimit:10;stroke-dasharray:none;stroke-opacity:1"
         id="path1454" />
    </g>
    <g
       id="g1456"
       transform="matrix(0.35277777,0,0,-0.35277777,26.896903,37.514914)">
      <path
         d="M 0,0 H 121.299"
         style="fill:none;stroke:#000000;stroke-width:3;stroke-linecap:butt;stroke-linejoin:round;stroke-miterlimit:10;stroke-dasharray:none;stroke-opacity:1"
         id="path1458" />
    </g>
    <g
       id="g1460"
       transform="matrix(0.35277777,0,0,-0.35277777,173.51133,37.797138)">
      <path
         d="M 0,0 V -65.014"
         style="fill:none;stroke:#f79646;stroke-width:3;stroke-linecap:butt;stroke-linejoin:round;stroke-miterlimit:10;stroke-dasharray:none;stroke-opacity:1"
         id="path1462" />
    </g>
    <g
       id="g1464"
       transform="matrix(0.35277777,0,0,-0.35277777,155.87246,78.468004)">
      <path
         d="M 0,0 V 48.688"
         style="fill:none;stroke:#f79646;stroke-width:3;stroke-linecap:butt;stroke-linejoin:round;stroke-miterlimit:10;stroke-dasharray:none;stroke-opacity:1"
         id="path1466" />
    </g>
    <g
       id="g1468"
       transform="matrix(0.35277777,0,0,-0.35277777,145.64189,101.86158)">
      <path
         d="M 0,0 V -67.538"
         style="fill:none;stroke:#f79646;stroke-width:3;stroke-linecap:butt;stroke-linejoin:round;stroke-miterlimit:10;stroke-dasharray:none;stroke-opacity:1"
         id="path1470" />
    </g>
    <g
       id="g1472"
       transform="matrix(0.35277777,0,0,-0.35277777,149.52246,78.366581)">
      <path
         d="M 0,0 V -66.656"
         style="fill:none;stroke:#f79646;stroke-width:3;stroke-linecap:butt;stroke-linejoin:round;stroke-miterlimit:10;stroke-dasharray:none;stroke-opacity:1"
         id="path1474" />
    </g>
    <g
       id="g1476"
       transform="matrix(0.35277777,0,0,-0.35277777,139.08023,102.21435)">
      <path
         d="M 0,0 H 121.299"
         style="fill:none;stroke:#f79646;stroke-width:3;stroke-linecap:butt;stroke-linejoin:round;stroke-miterlimit:10;stroke-dasharray:none;stroke-opacity:1"
         id="path1478" />
    </g>
    <g
       id="g1480"
       transform="matrix(0.35277777,0,0,-0.35277777,139.08023,126.20324)">
      <path
         d="M 0,0 H 121.299"
         style="fill:none;stroke:#f79646;stroke-width:3;stroke-linecap:butt;stroke-linejoin:round;stroke-miterlimit:10;stroke-dasharray:none;stroke-opacity:1"
         id="path1482" />
    </g>
    <g
       id="g1484"
       transform="matrix(0.35277777,0,0,-0.35277777,138.51579,37.585471)">
      <path
         d="M 0,0 H 121.299"
         style="fill:none;stroke:#f79646;stroke-width:3;stroke-linecap:butt;stroke-linejoin:round;stroke-miterlimit:10;stroke-dasharray:none;stroke-opacity:1"
         id="path1486" />
    </g>
    <g
       id="g1488"
       transform="matrix(0.35277777,0,0,-0.35277777,139.08023,60.798248)">
      <path
         d="M 0,0 H 121.299"
         style="fill:none;stroke:#f79646;stroke-width:3;stroke-linecap:butt;stroke-linejoin:round;stroke-miterlimit:10;stroke-dasharray:none;stroke-opacity:1"
         id="path1490" />
    </g>
    <text
       style="font-variant:normal;font-weight:normal;font-stretch:normal;font-size:8.46667px;font-family:'Cambria Math';-inkscape-font-specification:CambriaMath;writing-mode:lr-tb;fill:#f79646;fill-opacity:1;fill-rule:nonzero;stroke:none;stroke-width:0.352777"
       id="text1494"
       x="159.50722"
       y="36.113365"><tspan
         x="159.50722"
         y="36.113365"
         id="tspan1492"
         style="font-style:italic;font-variant:normal;font-weight:normal;font-stretch:normal;font-family:'Cambria Math';-inkscape-font-specification:'Cambria Math Italic';stroke-width:0.352777">z</tspan></text>
    <text
       style="font-variant:normal;font-weight:normal;font-stretch:normal;font-size:6.2089px;font-family:'Cambria Math';-inkscape-font-specification:CambriaMath;writing-mode:lr-tb;fill:#f79646;fill-opacity:1;fill-rule:nonzero;stroke:none;stroke-width:0.352777"
       id="text1498"
       x="164.02275"
       y="33.008957"><tspan
         x="164.02275"
         id="tspan1496"
         style="stroke-width:0.352777"
         y="33.008957">n+1</tspan></text>
    <g
       id="g1500"
       transform="matrix(0.35277777,0,0,-0.35277777,-148.39837,157.70629)">
      <g
         id="g1502"
         clip-path="url(#clipPath1506)">
        <g
           id="g1508"
           transform="translate(830.8,122.8)">
          <path
             d="M 0,0 C 0,1.325 1.164,2.4 2.6,2.4 4.036,2.4 5.2,1.325 5.2,0 5.2,-1.325 4.036,-2.4 2.6,-2.4 1.164,-2.4 0,-1.325 0,0"
             style="fill:#c0504d;fill-opacity:1;fill-rule:evenodd;stroke:none"
             id="path1510" />
        </g>
        <g
           id="g1512"
           transform="translate(830.8,122.8)">
          <path
             d="M 0,0 C 0,1.325 1.164,2.4 2.6,2.4 4.036,2.4 5.2,1.325 5.2,0 5.2,-1.325 4.036,-2.4 2.6,-2.4 1.164,-2.4 0,-1.325 0,0 Z"
             style="fill:none;stroke:#c0504d;stroke-width:2;stroke-linecap:butt;stroke-linejoin:round;stroke-miterlimit:10;stroke-dasharray:none;stroke-opacity:1"
             id="path1514" />
        </g>
      </g>
    </g>
    <g
       id="g1516"
       transform="matrix(0.35277777,0,0,-0.35277777,-148.39837,157.70629)">
      <g
         id="g1518"
         clip-path="url(#clipPath1522)">
        <g
           id="g1524"
           transform="translate(842,187.8)">
          <path
             d="M 0,0 C 0,1.325 1.119,2.4 2.5,2.4 3.881,2.4 5,1.325 5,0 5,-1.325 3.881,-2.4 2.5,-2.4 1.119,-2.4 0,-1.325 0,0"
             style="fill:#c0504d;fill-opacity:1;fill-rule:evenodd;stroke:none"
             id="path1526" />
        </g>
        <g
           id="g1528"
           transform="translate(842,187.8)">
          <path
             d="M 0,0 C 0,1.325 1.119,2.4 2.5,2.4 3.881,2.4 5,1.325 5,0 5,-1.325 3.881,-2.4 2.5,-2.4 1.119,-2.4 0,-1.325 0,0 Z"
             style="fill:none;stroke:#c0504d;stroke-width:2;stroke-linecap:butt;stroke-linejoin:round;stroke-miterlimit:10;stroke-dasharray:none;stroke-opacity:1"
             id="path1530" />
        </g>
      </g>
    </g>
    <g
       id="g1532"
       transform="matrix(0.35277777,0,0,-0.35277777,-148.39837,157.70629)">
      <g
         id="g1534"
         clip-path="url(#clipPath1538)">
        <g
           id="g1540"
           transform="translate(859.8,250.4)">
          <path
             d="M 0,0 C 0,1.325 1.164,2.4 2.6,2.4 4.036,2.4 5.2,1.325 5.2,0 5.2,-1.325 4.036,-2.4 2.6,-2.4 1.164,-2.4 0,-1.325 0,0"
             style="fill:#c0504d;fill-opacity:1;fill-rule:evenodd;stroke:none"
             id="path1542" />
        </g>
        <g
           id="g1544"
           transform="translate(859.8,250.4)">
          <path
             d="M 0,0 C 0,1.325 1.164,2.4 2.6,2.4 4.036,2.4 5.2,1.325 5.2,0 5.2,-1.325 4.036,-2.4 2.6,-2.4 1.164,-2.4 0,-1.325 0,0 Z"
             style="fill:none;stroke:#c0504d;stroke-width:2;stroke-linecap:butt;stroke-linejoin:round;stroke-miterlimit:10;stroke-dasharray:none;stroke-opacity:1"
             id="path1546" />
        </g>
      </g>
    </g>
    <g
       id="g1548"
       transform="matrix(0.35277777,0,0,-0.35277777,-148.39837,157.70629)">
      <g
         id="g1550"
         clip-path="url(#clipPath1554)">
        <g
           id="g1556"
           transform="translate(909.8,305)">
          <path
             d="M 0,0 C 0,1.325 1.119,2.4 2.5,2.4 3.881,2.4 5,1.325 5,0 5,-1.326 3.881,-2.4 2.5,-2.4 1.119,-2.4 0,-1.326 0,0"
             style="fill:#c0504d;fill-opacity:1;fill-rule:evenodd;stroke:none"
             id="path1558" />
        </g>
        <g
           id="g1560"
           transform="translate(909.8,305)">
          <path
             d="M 0,0 C 0,1.325 1.119,2.4 2.5,2.4 3.881,2.4 5,1.325 5,0 5,-1.326 3.881,-2.4 2.5,-2.4 1.119,-2.4 0,-1.326 0,0 Z"
             style="fill:none;stroke:#c0504d;stroke-width:2;stroke-linecap:butt;stroke-linejoin:round;stroke-miterlimit:10;stroke-dasharray:none;stroke-opacity:1"
             id="path1562" />
        </g>
      </g>
    </g>
    <text
       style="font-variant:normal;font-weight:normal;font-stretch:normal;font-size:8.46667px;font-family:'Cambria Math';-inkscape-font-specification:CambriaMath;writing-mode:lr-tb;fill:#f79646;fill-opacity:1;fill-rule:nonzero;stroke:none;stroke-width:0.352777"
       id="text1566"
       x="161.23401"
       y="74.143791"><tspan
         x="161.23401"
         y="74.143791"
         id="tspan1564"
         style="font-style:italic;font-variant:normal;font-weight:normal;font-stretch:normal;font-family:'Cambria Math';-inkscape-font-specification:'Cambria Math Italic';stroke-width:0.352777">θ</tspan></text>
    <text
       style="font-variant:normal;font-weight:normal;font-stretch:normal;font-size:6.2089px;font-family:'Cambria Math';-inkscape-font-specification:CambriaMath;writing-mode:lr-tb;fill:#f79646;fill-opacity:1;fill-rule:nonzero;stroke:none;stroke-width:0.352777"
       id="text1572"
       x="165.74953"
       y="76.189865"><tspan
         x="165.74953"
         y="76.189865"
         id="tspan1568"
         style="stroke-width:0.352777">k</tspan><tspan
         x="165.74953"
         id="tspan1570"
         style="stroke-width:0.352777"
         y="83.950989" /></text>
    <g
       id="g1574"
       transform="matrix(0.35277777,0,0,-0.35277777,114.73857,60.798248)">
      <path
         d="M 0,0 H 68.896"
         style="fill:none;stroke:#f79646;stroke-width:1;stroke-linecap:butt;stroke-linejoin:round;stroke-miterlimit:10;stroke-dasharray:4, 3;stroke-dashoffset:0;stroke-opacity:1"
         id="path1576" />
    </g>
    <text
       style="font-variant:normal;font-weight:normal;font-stretch:normal;font-size:8.46667px;font-family:'Cambria Math';-inkscape-font-specification:CambriaMath;writing-mode:lr-tb;fill:#00b0f0;fill-opacity:1;fill-rule:nonzero;stroke:none;stroke-width:0.352777"
       id="text1580"
       x="29.650791"
       y="88.978203"><tspan
         x="29.650791"
         y="88.978203"
         id="tspan1578"
         style="font-style:italic;font-variant:normal;font-weight:normal;font-stretch:normal;font-family:'Cambria Math';-inkscape-font-specification:'Cambria Math Italic';stroke-width:0.352777">θ</tspan></text>
    <text
       style="font-variant:normal;font-weight:normal;font-stretch:normal;font-size:8.46667px;font-family:Calibri;-inkscape-font-specification:Calibri;writing-mode:lr-tb;fill:#00b0f0;fill-opacity:1;fill-rule:nonzero;stroke:none;stroke-width:0.352777"
       id="text1584"
       x="34.874725"
       y="85.870934"><tspan
         x="34.874725"
         y="85.870934"
         id="tspan1582"
         style="stroke-width:0.352777">†</tspan></text>
    <text
       style="font-variant:normal;font-weight:normal;font-stretch:normal;font-size:7.05556px;font-family:'Cambria Math';-inkscape-font-specification:CambriaMath;word-spacing:0px;writing-mode:lr-tb;fill:#000000;fill-opacity:1;fill-rule:nonzero;stroke:none;stroke-width:0.352777"
       id="text1588"
       x="30.286957"
       y="36.412346"><tspan
         x="30.286957"
         y="36.412346"
         id="tspan1586"
         style="font-style:italic;font-variant:normal;font-weight:normal;font-stretch:normal;font-family:'Cambria Math';-inkscape-font-specification:'Cambria Math Italic';stroke-width:0.352777">z</tspan></text>
    <text
       style="font-variant:normal;font-weight:normal;font-stretch:normal;font-size:8.46667px;font-family:Calibri;-inkscape-font-specification:Calibri;writing-mode:lr-tb;fill:#000000;fill-opacity:1;fill-rule:nonzero;stroke:none;stroke-width:0.352777"
       id="text1592"
       x="34.026398"
       y="33.801792"><tspan
         x="34.026398"
         y="33.801792"
         id="tspan1590"
         style="stroke-width:0.352777">†</tspan></text>
    <g
       id="g1594"
       transform="matrix(0.35277777,0,0,-0.35277777,112.69246,78.507692)">
      <path
         d="M 0,0 H 88.538"
         style="fill:none;stroke:#f79646;stroke-width:1;stroke-linecap:butt;stroke-linejoin:round;stroke-miterlimit:10;stroke-dasharray:4, 3;stroke-dashoffset:0;stroke-opacity:1"
         id="path1596" />
    </g>
    <g
       id="g1598"
       transform="matrix(0.35277777,0,0,-0.35277777,138.51579,78.507692)">
      <path
         d="M 0,0 H 121.299"
         style="fill:none;stroke:#f79646;stroke-width:3;stroke-linecap:butt;stroke-linejoin:round;stroke-miterlimit:10;stroke-dasharray:none;stroke-opacity:1"
         id="path1600" />
    </g>
    <g
       id="g1602"
       transform="matrix(0.35277777,0,0,-0.35277777,112.69246,102.28491)">
      <path
         d="M 0,0 H 82.482"
         style="fill:none;stroke:#f79646;stroke-width:1;stroke-linecap:butt;stroke-linejoin:round;stroke-miterlimit:10;stroke-dasharray:4, 3;stroke-dashoffset:0;stroke-opacity:1"
         id="path1604" />
    </g>
    <g
       id="g1606"
       transform="matrix(0.35277777,0,0,-0.35277777,114.73857,37.656027)">
      <path
         d="M 0,0 113.35,-0.222"
         style="fill:none;stroke:#f79646;stroke-width:1;stroke-linecap:butt;stroke-linejoin:round;stroke-miterlimit:10;stroke-dasharray:4, 3;stroke-dashoffset:0;stroke-opacity:1"
         id="path1608" />
    </g>
    <g
       id="g1610"
       transform="matrix(0.35277777,0,0,-0.35277777,-148.39837,157.70629)">
      <g
         id="g1612"
         clip-path="url(#clipPath1616)">
        <g
           id="g1618"
           transform="translate(780,338.4)">
          <path
             d="m 0,0 c 3.314,0 6,-0.448 6,-1 v -29.1 c 0,-0.552 2.686,-1 6,-1 -3.314,0 -6,-0.448 -6,-1 v -29.1 c 0,-0.552 -2.686,-1 -6,-1"
             style="fill:none;stroke:#f79646;stroke-width:1.6;stroke-linecap:butt;stroke-linejoin:round;stroke-miterlimit:10;stroke-dasharray:none;stroke-opacity:1"
             id="path1620" />
        </g>
      </g>
    </g>
    <g
       id="g1622"
       transform="matrix(0.35277777,0,0,-0.35277777,-148.39837,157.70629)">
      <g
         id="g1624"
         clip-path="url(#clipPath1628)">
        <g
           id="g1630"
           transform="translate(780.4,274.2)">
          <path
             d="m 0,0 c 3.148,0 5.7,-0.425 5.7,-0.95 v -22.2 c 0,-0.525 2.552,-0.95 5.7,-0.95 -3.148,0 -5.7,-0.425 -5.7,-0.95 v -22.2 C 5.7,-47.775 3.148,-48.2 0,-48.2"
             style="fill:none;stroke:#f79646;stroke-width:1.6;stroke-linecap:butt;stroke-linejoin:round;stroke-miterlimit:10;stroke-dasharray:none;stroke-opacity:1"
             id="path1632" />
        </g>
      </g>
    </g>
    <g
       id="g1634"
       transform="matrix(0.35277777,0,0,-0.35277777,-148.39837,157.70629)">
      <g
         id="g1636"
         clip-path="url(#clipPath1640)">
        <g
           id="g1642"
           transform="translate(780.4,222.8)">
          <path
             d="m 0,0 c 3.148,0 5.7,-0.425 5.7,-0.95 v -29.8 c 0,-0.525 2.552,-0.95 5.7,-0.95 -3.148,0 -5.7,-0.425 -5.7,-0.95 v -29.8 C 5.7,-62.975 3.148,-63.4 0,-63.4"
             style="fill:none;stroke:#f79646;stroke-width:1.6;stroke-linecap:butt;stroke-linejoin:round;stroke-miterlimit:10;stroke-dasharray:none;stroke-opacity:1"
             id="path1644" />
        </g>
      </g>
    </g>
    <g
       id="g1646"
       transform="matrix(0.35277777,0,0,-0.35277777,-148.39837,157.70629)">
      <g
         id="g1648"
         clip-path="url(#clipPath1652)">
        <g
           id="g1654"
           transform="translate(780.4,155.6)">
          <path
             d="m 0,0 c 3.148,0 5.7,-0.425 5.7,-0.95 v -29.8 c 0,-0.525 2.552,-0.95 5.7,-0.95 -3.148,0 -5.7,-0.425 -5.7,-0.95 v -29.8 C 5.7,-62.975 3.148,-63.4 0,-63.4"
             style="fill:none;stroke:#f79646;stroke-width:1.6;stroke-linecap:butt;stroke-linejoin:round;stroke-miterlimit:10;stroke-dasharray:none;stroke-opacity:1"
             id="path1656" />
        </g>
      </g>
    </g>
    <g
       id="g1658"
       transform="matrix(0.35277777,0,0,-0.35277777,112.69246,126.13269)">
      <path
         d="M 0,0 113.35,-0.222"
         style="fill:none;stroke:#f79646;stroke-width:1;stroke-linecap:butt;stroke-linejoin:round;stroke-miterlimit:10;stroke-dasharray:4, 3;stroke-dashoffset:0;stroke-opacity:1"
         id="path1660" />
    </g>
    <g
       id="g1738"
       transform="matrix(0.35277777,0,0,-0.35277777,80.236899,56.071028)">
      <path
         d="M 0,0 H 108"
         style="fill:none;stroke:#c0504d;stroke-width:3;stroke-linecap:butt;stroke-linejoin:round;stroke-miterlimit:10;stroke-dasharray:none;stroke-opacity:1"
         id="path1740" />
    </g>
    <g
       id="g1742"
       transform="matrix(0.35277777,0,0,-0.35277777,80.236899,126.06213)">
      <path
         d="M 0,0 H 108"
         style="fill:none;stroke:#c0504d;stroke-width:3;stroke-linecap:butt;stroke-linejoin:round;stroke-miterlimit:10;stroke-dasharray:none;stroke-opacity:1"
         id="path1744" />
    </g>
    <g
       id="g1746"
       transform="matrix(0.35277777,0,0,-0.35277777,80.236899,46.546027)">
      <path
         d="M 0,0 H 108"
         style="fill:none;stroke:#c0504d;stroke-width:3;stroke-linecap:butt;stroke-linejoin:round;stroke-miterlimit:10;stroke-dasharray:none;stroke-opacity:1"
         id="path1748" />
    </g>
    <g
       id="g1750"
       transform="matrix(0.35277777,0,0,-0.35277777,80.236899,52.119914)">
      <path
         d="M 0,0 H 108"
         style="fill:none;stroke:#c0504d;stroke-width:3;stroke-linecap:butt;stroke-linejoin:round;stroke-miterlimit:10;stroke-dasharray:none;stroke-opacity:1"
         id="path1752" />
    </g>
    <g
       id="g1754"
       transform="matrix(0.35277777,0,0,-0.35277777,80.236899,37.585471)">
      <path
         d="M 0,0 H 108"
         style="fill:none;stroke:#c0504d;stroke-width:3;stroke-linecap:butt;stroke-linejoin:round;stroke-miterlimit:10;stroke-dasharray:none;stroke-opacity:1"
         id="path1756" />
    </g>
    <g
       id="g1758"
       transform="matrix(0.35277777,0,0,-0.35277777,80.730789,102.21435)">
      <path
         d="M 0,0 H 106.562"
         style="fill:none;stroke:#c0504d;stroke-width:3;stroke-linecap:butt;stroke-linejoin:round;stroke-miterlimit:10;stroke-dasharray:none;stroke-opacity:1"
         id="path1760" />
    </g>
    <g
       id="g1762"
       transform="matrix(0.35277777,0,0,-0.35277777,80.730789,60.868805)">
      <path
         d="M 0,0 H 106.562"
         style="fill:none;stroke:#c0504d;stroke-width:3;stroke-linecap:butt;stroke-linejoin:round;stroke-miterlimit:10;stroke-dasharray:none;stroke-opacity:1"
         id="path1764" />
    </g>
    <g
       id="g1766"
       transform="matrix(0.35277777,0,0,-0.35277777,80.236899,78.578248)">
      <path
         d="M 0,0 H 108"
         style="fill:none;stroke:#c0504d;stroke-width:3;stroke-linecap:butt;stroke-linejoin:round;stroke-miterlimit:10;stroke-dasharray:none;stroke-opacity:1"
         id="path1768" />
    </g>
    <g
       id="g1770"
       transform="matrix(0.35277777,0,0,-0.35277777,-148.39837,157.70629)">
      <g
         id="g1772"
         clip-path="url(#clipPath1776)">
        <g
           id="g1778"
           transform="translate(631.6,285.6)">
          <path
             d="M 0,0 C 2.872,0 5.2,-0.328 5.2,-0.733 V -3.667 C 5.2,-4.072 7.528,-4.4 10.4,-4.4 7.528,-4.4 5.2,-4.728 5.2,-5.133 V -8.067 C 5.2,-8.472 2.872,-8.8 0,-8.8"
             style="fill:none;stroke:#c0504d;stroke-width:1.6;stroke-linecap:butt;stroke-linejoin:round;stroke-miterlimit:10;stroke-dasharray:none;stroke-opacity:1"
             id="path1780" />
        </g>
      </g>
    </g>
    <g
       id="g1782"
       transform="matrix(0.35277777,0,0,-0.35277777,-148.39837,157.70629)">
      <g
         id="g1784"
         clip-path="url(#clipPath1788)">
        <g
           id="g1790"
           transform="translate(630.4,274.8)">
          <path
             d="m 0,0 c 3.148,0 5.7,-0.425 5.7,-0.95 v -22.2 c 0,-0.525 2.552,-0.95 5.7,-0.95 -3.148,0 -5.7,-0.425 -5.7,-0.95 v -22.2 C 5.7,-47.775 3.148,-48.2 0,-48.2"
             style="fill:none;stroke:#c0504d;stroke-width:1.6;stroke-linecap:butt;stroke-linejoin:round;stroke-miterlimit:10;stroke-dasharray:none;stroke-opacity:1"
             id="path1792" />
        </g>
      </g>
    </g>
    <g
       id="g1794"
       transform="matrix(0.35277777,0,0,-0.35277777,-148.39837,157.70629)">
      <g
         id="g1796"
         clip-path="url(#clipPath1800)">
        <g
           id="g1802"
           transform="translate(630.4,223.6)">
          <path
             d="m 0,0 c 3.148,0 5.7,-0.425 5.7,-0.95 v -29.9 c 0,-0.525 2.552,-0.95 5.7,-0.95 -3.148,0 -5.7,-0.425 -5.7,-0.95 v -29.9 C 5.7,-63.175 3.148,-63.6 0,-63.6"
             style="fill:none;stroke:#c0504d;stroke-width:1.6;stroke-linecap:butt;stroke-linejoin:round;stroke-miterlimit:10;stroke-dasharray:none;stroke-opacity:1"
             id="path1804" />
        </g>
      </g>
    </g>
    <g
       id="g1806"
       transform="matrix(0.35277777,0,0,-0.35277777,-148.39837,157.70629)">
      <g
         id="g1808"
         clip-path="url(#clipPath1812)">
        <g
           id="g1814"
           transform="translate(631.4,300)">
          <path
             d="M 0,0 C 2.927,0 5.3,-0.321 5.3,-0.717 V -3.583 C 5.3,-3.979 7.673,-4.3 10.6,-4.3 7.673,-4.3 5.3,-4.621 5.3,-5.017 V -7.883 C 5.3,-8.279 2.927,-8.6 0,-8.6"
             style="fill:none;stroke:#c0504d;stroke-width:1.6;stroke-linecap:butt;stroke-linejoin:round;stroke-miterlimit:10;stroke-dasharray:none;stroke-opacity:1"
             id="path1816" />
        </g>
      </g>
    </g>
    <g
       id="g1818"
       transform="matrix(0.35277777,0,0,-0.35277777,-148.39837,157.70629)">
      <g
         id="g1820"
         clip-path="url(#clipPath1824)">
        <g
           id="g1826"
           transform="translate(631.4,313.4)">
          <path
             d="M 0,0 C 2.872,0 5.2,-0.388 5.2,-0.867 V -4.833 C 5.2,-5.312 7.528,-5.7 10.4,-5.7 7.528,-5.7 5.2,-6.088 5.2,-6.567 v -3.966 C 5.2,-11.012 2.872,-11.4 0,-11.4"
             style="fill:none;stroke:#c0504d;stroke-width:1.6;stroke-linecap:butt;stroke-linejoin:round;stroke-miterlimit:10;stroke-dasharray:none;stroke-opacity:1"
             id="path1828" />
        </g>
      </g>
    </g>
    <g
       id="g1830"
       transform="matrix(0.35277777,0,0,-0.35277777,-148.39837,157.70629)">
      <g
         id="g1832"
         clip-path="url(#clipPath1836)">
        <g
           id="g1838"
           transform="translate(630,338)">
          <path
             d="M 0,0 C 3.258,0 5.9,-0.44 5.9,-0.983 V -9.017 C 5.9,-9.56 8.542,-10 11.8,-10 8.542,-10 5.9,-10.44 5.9,-10.983 v -8.034 C 5.9,-19.56 3.258,-20 0,-20"
             style="fill:none;stroke:#c0504d;stroke-width:1.6;stroke-linecap:butt;stroke-linejoin:round;stroke-miterlimit:10;stroke-dasharray:none;stroke-opacity:1"
             id="path1840" />
        </g>
      </g>
    </g>
    <g
       id="g2016"
       transform="matrix(0.35277777,0,0,-0.35277777,-148.39837,157.70629)">
      <g
         id="g2018"
         clip-path="url(#clipPath2022)">
        <g
           id="g2024"
           transform="translate(653.8,90.2)">
          <path
             d="M 0,0 C 9.625,76.181 13.475,120.619 46.2,196.8"
             style="fill:none;stroke:#00b0f0;stroke-width:1.6;stroke-linecap:butt;stroke-linejoin:round;stroke-miterlimit:10;stroke-dasharray:none;stroke-opacity:1"
             id="path2026" />
        </g>
      </g>
    </g>
    <g
       id="g2028"
       transform="matrix(0.35277777,0,0,-0.35277777,-148.39837,157.70629)">
      <g
         id="g2030"
         clip-path="url(#clipPath2034)">
        <g
           id="g2036"
           transform="translate(705.4,287)">
          <path
             d="M 0,0 C 4.125,4.723 5.775,7.477 19.8,12.2"
             style="fill:none;stroke:#00b0f0;stroke-width:1.6;stroke-linecap:butt;stroke-linejoin:round;stroke-miterlimit:10;stroke-dasharray:none;stroke-opacity:1"
             id="path2038" />
        </g>
      </g>
    </g>
    <g
       id="g2040"
       transform="matrix(0.35277777,0,0,-0.35277777,-148.39837,157.70629)">
      <g
         id="g2042"
         clip-path="url(#clipPath2046)">
        <g
           id="g2048"
           transform="translate(731.8,299.2)">
          <path
             d="M 0,0 C 5.014,5.891 7.386,9.699 8.4,15.8"
             style="fill:none;stroke:#00b0f0;stroke-width:1.6;stroke-linecap:butt;stroke-linejoin:round;stroke-miterlimit:10;stroke-dasharray:none;stroke-opacity:1"
             id="path2050" />
        </g>
      </g>
    </g>
    <g
       id="g2052"
       transform="matrix(0.35277777,0,0,-0.35277777,-148.39837,157.70629)">
      <g
         id="g2054"
         clip-path="url(#clipPath2058)">
        <g
           id="g2060"
           transform="translate(742,315.8)">
          <path
             d="M 0,0 C 4.417,9.339 7.597,15.999 10.6,24.4"
             style="fill:none;stroke:#00b0f0;stroke-width:1.6;stroke-linecap:butt;stroke-linejoin:round;stroke-miterlimit:10;stroke-dasharray:none;stroke-opacity:1"
             id="path2062" />
        </g>
      </g>
    </g>
    <g
       id="g2064"
       transform="matrix(0.35277777,0,0,-0.35277777,93.289676,78.256375)">
      <path
         d="M 0,0 V 48.688"
         style="fill:none;stroke:#c0504d;stroke-width:3;stroke-linecap:butt;stroke-linejoin:round;stroke-miterlimit:10;stroke-dasharray:none;stroke-opacity:1"
         id="path2066" />
    </g>
    <g
       id="g2068"
       transform="matrix(0.35277777,0,0,-0.35277777,83.764676,101.64991)">
      <path
         d="M 0,0 V -67.538"
         style="fill:none;stroke:#c0504d;stroke-width:3;stroke-linecap:butt;stroke-linejoin:round;stroke-miterlimit:10;stroke-dasharray:none;stroke-opacity:1"
         id="path2070" />
    </g>
    <g
       id="g2072"
       transform="matrix(0.35277777,0,0,-0.35277777,87.715789,78.154915)">
      <path
         d="M 0,0 V -66.656"
         style="fill:none;stroke:#c0504d;stroke-width:3;stroke-linecap:butt;stroke-linejoin:round;stroke-miterlimit:10;stroke-dasharray:none;stroke-opacity:1"
         id="path2074" />
    </g>
    <g
       id="g2076"
       transform="matrix(0.35277777,0,0,-0.35277777,97.452456,60.822061)">
      <path
         d="M 0,0 V 13.667"
         style="fill:none;stroke:#c0504d;stroke-width:3;stroke-linecap:butt;stroke-linejoin:round;stroke-miterlimit:10;stroke-dasharray:none;stroke-opacity:1"
         id="path2078" />
    </g>
    <g
       id="g2080"
       transform="matrix(0.35277777,0,0,-0.35277777,103.02634,56.306507)">
      <path
         d="M 0,0 V 13.667"
         style="fill:none;stroke:#c0504d;stroke-width:3;stroke-linecap:butt;stroke-linejoin:round;stroke-miterlimit:10;stroke-dasharray:none;stroke-opacity:1"
         id="path2082" />
    </g>
    <g
       id="g2084"
       transform="matrix(0.35277777,0,0,-0.35277777,111.28134,52.355431)">
      <path
         d="M 0,0 0.039,16.868"
         style="fill:none;stroke:#c0504d;stroke-width:3;stroke-linecap:butt;stroke-linejoin:round;stroke-miterlimit:10;stroke-dasharray:none;stroke-opacity:1"
         id="path2086" />
    </g>
    <g
       id="g2088"
       transform="matrix(0.35277777,0,0,-0.35277777,114.95023,46.959481)">
      <path
         d="M 0,0 V 25.572"
         style="fill:none;stroke:#c0504d;stroke-width:3;stroke-linecap:butt;stroke-linejoin:round;stroke-miterlimit:10;stroke-dasharray:none;stroke-opacity:1"
         id="path2090" />
    </g>
    <text
       style="font-variant:normal;font-weight:normal;font-stretch:normal;font-size:6.2089px;font-family:'Cambria Math';-inkscape-font-specification:CambriaMath;writing-mode:lr-tb;fill:#f79646;fill-opacity:1;fill-rule:nonzero;stroke:none;stroke-width:0.352777"
       id="text1498-3"
       x="165.79828"
       y="68.48378"><tspan
         x="165.79828"
         id="tspan1496-6"
         style="stroke-width:0.352777"
         y="68.48378">n+1</tspan></text>
  </g>
</svg>
